<svg width="277" height="68" viewBox="0 0 277 68" fill="none" xmlns="http://www.w3.org/2000/svg">
<path d="M5 25C5 13.9543 13.9543 5 25 5H252C263.046 5 272 13.9543 272 25V43C272 54.0457 263.046 63 252 63H25C13.9543 63 5 54.0457 5 43V25Z" fill="#9B9B9B"/>
<path fill-rule="evenodd" clip-rule="evenodd" d="M25 0H220V5H25C13.9543 5 5 13.9543 5 25V43C5 54.0457 13.9543 63 25 63H252C263.046 63 272 54.0457 272 43V25C272 13.9543 263.046 5 252 5H248V0H252C265.807 0 277 11.1929 277 25V43C277 56.8071 265.807 68 252 68H25C11.1929 68 0 56.8071 0 43V25C0 11.1929 11.1929 0 25 0ZM240 0H234V5H240V0Z" fill="#5D5D5D"/>
</svg>
